<svg width="642px" height="56px" viewBox="0 0 642 56" version="1.1" xmlns="http://www.w3.org/2000/svg" style="font-family: Menlo, DejaVu Sans Mono, Consolas, Courier">
<g stroke="none" stroke-width="1" fill="none" fill-rule="evenodd">
<g font-weight="normal" fill="#000000" font-size="10">
<g transform="translate(5, 9)">
<text x="0">31</text><text x="20">30</text><text x="40">29</text><text x="60">28</text><text x="80">27</text><text x="100">26</text><text x="120">25</text><text x="140">24</text><text x="160">23</text><text x="180">22</text><text x="200">21</text><text x="220">20</text><text x="240">19</text><text x="260">18</text><text x="280">17</text><text x="300">16</text><text x="320">15</text><text x="340">14</text><text x="360">13</text><text x="380">12</text><text x="400">11</text><text x="420">10</text><text x="443">9</text><text x="463">8</text><text x="483">7</text><text x="503">6</text><text x="523">5</text><text x="543">4</text><text x="563">3</text><text x="583">2</text><text x="603">1</text><text x="623">0</text>
</g>
</g>
<g transform="translate(0, 15)">
<rect fill="#F7F7F7" x="1" y="0" width="640" height="40"></rect>
<g id="decoded-bits" fill="#000000" font-weight="normal" font-size="14"><g transform="translate(0,0)"><rect x="0" y="0" width="20" height="40"></rect><text x="7" y="25">1</text></g><g transform="translate(20,0)"><rect x="0" y="0" width="20" height="40"></rect><text x="7" y="25">1</text></g><g transform="translate(40,0)"><rect x="0" y="0" width="20" height="40"></rect><text x="7" y="25">0</text></g><g transform="translate(60,0)"><rect x="0" y="0" width="20" height="40"></rect><text x="7" y="25">1</text></g><g transform="translate(80,0)"><rect x="0" y="0" width="20" height="40"></rect><text x="7" y="25">0</text></g><g transform="translate(100,0)"><rect x="0" y="0" width="20" height="40"></rect><text x="7" y="25">1</text></g><g transform="translate(120,0)"><rect x="0" y="0" width="20" height="40"></rect><text x="7" y="25">1</text></g><g transform="translate(140,0)"><rect x="0" y="0" width="20" height="40"></rect><text x="7" y="25">1</text></g><g transform="translate(160,0)"><rect x="0" y="0" width="20" height="40"></rect><text x="7" y="25">1</text></g><g transform="translate(180,0)"><rect x="0" y="0" width="20" height="40"></rect><text x="7" y="25">1</text></g><g transform="translate(200,0)"><rect x="0" y="0" width="20" height="40"></rect><text x="7" y="25">0</text></g><g transform="translate(220,0)"><rect x="0" y="0" width="20" height="40"></rect><text x="7" y="25">1</text></g><g transform="translate(240,0)"><rect x="0" y="0" width="20" height="40"></rect><text x="7" y="25">0</text></g><g transform="translate(260,0)"><rect x="0" y="0" width="20" height="40"></rect><text x="7" y="25">1</text></g><g transform="translate(280,0)"><rect x="0" y="0" width="20" height="40"></rect><text x="7" y="25">1</text></g><g transform="translate(300,0)"><rect x="0" y="0" width="20" height="40"></rect><text x="7" y="25">1</text></g><g transform="translate(320,0)"><rect x="0" y="0" width="20" height="40"></rect><text x="7" y="25">1</text></g><g transform="translate(340,0)"><rect x="0" y="0" width="20" height="40"></rect><text x="7" y="25">1</text></g><g transform="translate(360,0)"><rect x="0" y="0" width="20" height="40"></rect><text x="7" y="25">0</text></g><g transform="translate(380,0)"><rect x="0" y="0" width="20" height="40"></rect><text x="7" y="25">1</text></g><g transform="translate(400,0)"><rect x="0" y="0" width="20" height="40"></rect><text x="7" y="25">0</text></g><g transform="translate(420,0)"><rect x="0" y="0" width="20" height="40"></rect><text x="7" y="25">1</text></g><g transform="translate(440,0)"><rect x="0" y="0" width="20" height="40"></rect><text x="7" y="25">1</text></g><g transform="translate(460,0)"><rect x="0" y="0" width="20" height="40"></rect><text x="7" y="25">1</text></g><g transform="translate(480,0)"><rect x="0" y="0" width="20" height="40"></rect><text x="7" y="25">1</text></g><g transform="translate(500,0)"><rect x="0" y="0" width="20" height="40"></rect><text x="7" y="25">1</text></g><g transform="translate(520,0)"><rect x="0" y="0" width="20" height="40"></rect><text x="7" y="25">0</text></g><g transform="translate(540,0)"><rect x="0" y="0" width="20" height="40"></rect><text x="7" y="25">1</text></g><g transform="translate(560,0)"><rect x="0" y="0" width="20" height="40"></rect><text x="7" y="25">0</text></g><g transform="translate(580,0)"><rect x="0" y="0" width="20" height="40"></rect><text x="7" y="25">1</text></g><g transform="translate(600,0)"><rect x="0" y="0" width="20" height="40"></rect><text x="7" y="25">1</text></g><g transform="translate(620,0)"><rect x="0" y="0" width="20" height="40"></rect><text x="7" y="25">1</text></g></g>
<g transform="translate(1, 0)" stroke="#000000" stroke-width="2">
<g transform="translate(19, 1)" stroke-opacity="0.2" stroke-dasharray="5,28,5,28">
<path d="M1,0 L0,38"></path>
<path d="M21,0 L20,38"></path>
<path d="M41,0 L40,38"></path>
<path d="M61,0 L60,38"></path>
<path d="M81,0 L80,38"></path>
<path d="M101,0 L100,38"></path>
<path d="M121,0 L120,38"></path>
</g>
<g transform="translate(179, 1)" stroke-opacity="0.2" stroke-dasharray="5,28,5,28">
<path d="M1,0 L0,38"></path>
<path d="M21,0 L20,38"></path>
<path d="M41,0 L40,38"></path>
<path d="M61,0 L60,38"></path>
<path d="M81,0 L80,38"></path>
<path d="M101,0 L100,38"></path>
<path d="M121,0 L120,38"></path>
</g>
<g transform="translate(340, 1)" stroke-opacity="0.2" stroke-dasharray="5,28,5,28">
<path d="M1,0 L0,38"></path>
<path d="M21,0 L20,38"></path>
<path d="M41,0 L40,38"></path>
<path d="M61,0 L60,38"></path>
<path d="M81,0 L80,38"></path>
<path d="M101,0 L100,38"></path>
<path d="M121,0 L120,38"></path>
</g>
<g transform="translate(499, 1)" stroke-opacity="0.2" stroke-dasharray="5,28,5,28">
<path d="M1,0 L0,38"></path>
<path d="M21,0 L20,38"></path>
<path d="M41,0 L40,38"></path>
<path d="M61,0 L60,38"></path>
<path d="M81,0 L80,38"></path>
<path d="M101,0 L100,38"></path>
<path d="M121,0 L120,38"></path>
</g>
<g transform="translate(159, 1)" stroke-opacity="0.5" stroke-dasharray="8,24,8,24">
<path d="M1,0 L0,38"></path>
<path d="M161,0 L160,38"></path>
<path d="M321,0 L320,38"></path>
</g>
<rect x="0" y="0" width="640" height="40"></rect>
</g>
</g>
</g>
</svg>
