<svg width="244px" height="86px" viewBox="0 0 244 86" version="1.1" xmlns="http://www.w3.org/2000/svg" style="font-family: Menlo, DejaVu Sans Mono, Consolas, Courier">
<g stroke="none" stroke-width="1" fill="none" fill-rule="evenodd">
<g transform="translate(3, 9)" font-weight="normal" fill="#000000" font-size="10">
<text x="3">11</text><text x="23">10</text><text x="46">9</text><text x="66">8</text><text x="86">7 </text><text x="106">6</text><text x="126">5</text><text x="146">4</text><text x="166">3</text><text x="186">2</text><text x="206">1</text><text x="226">0</text>
</g>
<rect fill="#F7F7F7" x="1" y="15" width="240" height="40"></rect>
<rect fill-opacity="0.5" fill="#F8E71C" x="1" y="15" width="80" height="40"></rect>
<rect fill-opacity="0.5" fill="#F5A623" x="81" y="15" width="160" height="40"></rect>
<g id="encoded-bits" transform="translate(0, 15)" font-weight="normal" fill="#000000" font-size="14"><g class="bit_11" transform="translate(0,0)"><text x="7" y="25">1</text></g><g class="bit_10" transform="translate(20,0)"><text x="7" y="25">0</text></g><g class="bit_9" transform="translate(40,0)"><text x="7" y="25">1</text></g><g class="bit_8" transform="translate(60,0)"><text x="7" y="25">1</text></g><g class="bit_7" transform="translate(80,0)"><text x="7" y="25">1</text></g><g class="bit_6" transform="translate(100,0)"><text x="7" y="25">1</text></g><g class="bit_5" transform="translate(120,0)"><text x="7" y="25">0</text></g><g class="bit_4" transform="translate(140,0)"><text x="7" y="25">1</text></g><g class="bit_3" transform="translate(160,0)"><text x="7" y="25">0</text></g><g class="bit_2" transform="translate(180,0)"><text x="7" y="25">1</text></g><g class="bit_1" transform="translate(200,0)"><text x="7" y="25">1</text></g><g class="bit_0" transform="translate(220,0)"><text x="7" y="25">1</text></g></g>
<g transform="translate(20, 16)" stroke="#000000" stroke-opacity="0.2" stroke-width="2" stroke-dasharray="5,28,5,28">
<path d="M1,0 L0,38"></path>
<path d="M21,0 L20,38"></path>
<path d="M41,0 L40,38"></path>
</g>
<g transform="translate(100, 16)" stroke="#000000" stroke-opacity="0.2" stroke-width="2" stroke-dasharray="5,28,5,28">
<path d="M1,0 L0,38"></path>
<path d="M21,0 L20,38"></path>
<path d="M41,0 L40,38"></path>
<path d="M61,0 L60,38"></path>
<path d="M81,0 L80,38"></path>
<path d="M101,0 L100,38"></path>
<path d="M121,0 L120,38"></path>
</g>
<g transform="translate(80, 16)" stroke="#000000" stroke-opacity="0.5" stroke-width="2" stroke-dasharray="8,24,8,24">
<path d="M1,0 L0,38"></path>
</g>
<g transform="translate(0, 84)" font-weight="normal" fill="#000000" font-size="14">
<text id="encoded-shift" x="30">0xB</text>
<text id="encoded-immediate" x="140">0xD7</text>
</g>
<rect stroke="#000000" stroke-width="2" x="1" y="15" width="240" height="40"></rect>
</g>
</svg>
